<svg width="24" height="24" viewBox="0 0 24 24" fill="none" xmlns="http://www.w3.org/2000/svg">
<path d="M19.2483 7.01073C19.6625 7.01166 19.9991 6.67663 20 6.26241L20.0101 1.76242C20.011 1.34821 19.676 1.01167 19.2618 1.01074C18.8475 1.00982 18.511 1.34485 18.5101 1.75906L18.5041 4.41295C16.9524 3.08452 15.0255 2.25883 12.9803 2.0574C10.6776 1.8306 8.36742 2.40927 6.44349 3.6948C4.51956 4.98033 3.10089 6.89319 2.4292 9.10744C1.75751 11.3217 1.87437 13.7004 2.75986 15.8381C3.64534 17.9759 5.24468 19.7405 7.28535 20.8312C9.32603 21.922 11.6818 22.2714 13.9512 21.82C16.2206 21.3686 18.2633 20.1443 19.7313 18.3556C21.1992 16.5669 22.0015 14.3246 22.0015 12.0107C22.0015 11.5965 21.6657 11.2607 21.2515 11.2607C20.8373 11.2607 20.5015 11.5965 20.5015 12.0107C20.5015 13.9776 19.8195 15.8836 18.5717 17.404C17.324 18.9244 15.5876 19.9651 13.6586 20.3488C11.7295 20.7326 9.72707 20.4355 7.99245 19.5084C6.25783 18.5812 4.89836 17.0812 4.14567 15.2641C3.39299 13.447 3.29366 11.425 3.86461 9.54287C4.43556 7.6607 5.64146 6.03473 7.27685 4.942C8.91223 3.84927 10.8759 3.35739 12.8333 3.55018C14.5482 3.71908 16.1652 4.40432 17.4748 5.50676L14.7517 5.50066C14.3375 5.49973 14.0009 5.83476 14 6.24898C13.9991 6.66319 14.3341 6.99973 14.7483 7.00065L19.2483 7.01073ZM12.0578 9.86089C12.4383 9.35461 13.0141 9.11107 13.7554 9.11107C14.4898 9.11107 15.061 9.34807 15.439 9.84232C15.8129 10.3275 15.9926 11.0364 16.0016 11.9447L16.0016 11.9461L16.0016 13.0536C16.0016 13.9883 15.8266 14.72 15.4537 15.2256C15.0765 15.7382 14.5034 15.9853 13.7642 15.9853C13.0369 15.9853 12.467 15.7444 12.0811 15.246L12.0804 15.2451C11.704 14.7516 11.5225 14.0388 11.5136 13.1297L11.5136 13.1283V12.0208C11.5136 11.0866 11.6872 10.3582 12.0578 9.86089ZM9.68705 9.17699H9.8C9.91046 9.17699 10 9.26653 10 9.37699V15.3175C10 15.694 9.69478 15.9993 9.31826 15.9993C8.94175 15.9993 8.63652 15.694 8.63652 15.3175V10.82L7.7927 11.1117C7.40299 11.2465 6.99663 10.957 6.99663 10.5447V10.5199C6.99663 10.3106 7.12696 10.1235 7.32324 10.0509L9.68705 9.17699ZM13.7554 10.268C13.4518 10.268 13.2473 10.38 13.1141 10.5965C12.972 10.8249 12.8858 11.2047 12.877 11.7583V13.2074C12.877 13.7963 12.9603 14.2101 13.1079 14.469C13.2463 14.7118 13.4567 14.8328 13.7642 14.8328C14.0599 14.8328 14.262 14.7209 14.3961 14.5007C14.5392 14.2629 14.6249 13.8711 14.6337 13.3029V11.8582C14.6337 11.265 14.5515 10.8589 14.4084 10.6161C14.2742 10.3861 14.0658 10.268 13.7554 10.268Z" fill="#ffffff"/>
</svg>
