<svg width="24" height="24" viewBox="0 0 24 24" fill="none" xmlns="http://www.w3.org/2000/svg">
<path d="M4.75171 6.99999C4.33749 7.00091 4.00096 6.66588 4.00003 6.25167L3.98995 1.75168C3.98902 1.33747 4.32406 1.00093 4.73827 1C5.15248 0.999074 5.48902 1.33411 5.48995 1.74832L5.49589 4.4022C7.04762 3.07378 8.97455 2.24809 11.0197 2.04666C13.3225 1.81986 15.6326 2.39852 17.5565 3.68405C19.4805 4.96958 20.8991 6.88244 21.5708 9.0967C22.2425 11.311 22.1257 13.6896 21.2402 15.8274C20.3547 17.9651 18.7554 19.7297 16.7147 20.8205C14.674 21.9113 12.3183 22.2607 10.0488 21.8093C7.77939 21.3579 5.73669 20.1335 4.26877 18.3448C2.80085 16.5562 1.99854 14.3139 1.99854 12C1.99854 11.5858 2.33432 11.25 2.74854 11.25C3.16275 11.25 3.49854 11.5858 3.49854 12C3.49854 13.9668 4.18052 15.8728 5.42828 17.3933C6.67605 18.9137 8.41239 19.9544 10.3415 20.3381C12.2705 20.7218 14.273 20.4248 16.0076 19.4976C17.7422 18.5704 19.1017 17.0705 19.8544 15.2534C20.607 13.4362 20.7064 11.4143 20.1354 9.53213C19.5645 7.64996 18.3586 6.02399 16.7232 4.93126C15.0878 3.83853 13.1241 3.34665 11.1667 3.53943C9.45187 3.70833 7.8348 4.39358 6.52518 5.49601L9.24834 5.48991C9.66255 5.48899 9.99909 5.82402 10 6.23823C10.0009 6.65244 9.66591 6.98898 9.25169 6.98991L4.75171 6.99999ZM12.0578 9.85015C12.4384 9.34387 13.0141 9.10033 13.7554 9.10033C14.4898 9.10033 15.061 9.33733 15.439 9.83158C15.813 10.3168 15.9926 11.0256 16.0016 11.9339L16.0016 11.9354L16.0016 13.0428C16.0016 13.9775 15.8266 14.7092 15.4537 15.2148C15.0765 15.7274 14.5034 15.9745 13.7642 15.9745C13.0369 15.9745 12.467 15.7336 12.0811 15.2352L12.0805 15.2344C11.704 14.7409 11.5225 14.0281 11.5136 13.119L11.5136 13.1175V12.0101C11.5136 11.0759 11.6872 10.3475 12.0578 9.85015ZM9.68707 9.16624H9.80002C9.91048 9.16624 10 9.25578 10 9.36624V15.3068C10 15.6833 9.6948 15.9885 9.31829 15.9885C8.94177 15.9885 8.63655 15.6833 8.63655 15.3068V10.8092L7.79272 11.101C7.40301 11.2357 6.99665 10.9463 6.99665 10.5339V10.5092C6.99665 10.2999 7.12698 10.1128 7.32326 10.0402L9.68707 9.16624ZM13.7554 10.2573C13.4518 10.2573 13.2473 10.3692 13.1141 10.5858C12.972 10.8141 12.8858 11.194 12.8771 11.7476V13.1966C12.8771 13.7856 12.9603 14.1993 13.1079 14.4583C13.2463 14.7011 13.4567 14.822 13.7642 14.822C14.0599 14.822 14.262 14.7102 14.3961 14.49C14.5392 14.2522 14.625 13.8604 14.6337 13.2921V11.8475C14.6337 11.2542 14.5515 10.8482 14.4084 10.6053C14.2743 10.3753 14.0658 10.2573 13.7554 10.2573Z" fill="#ffffff"/>
</svg>
