<svg width="366" height="259" viewBox="0 0 366 259" fill="none" xmlns="http://www.w3.org/2000/svg">
<path fill-rule="evenodd" clip-rule="evenodd" d="M127.433 3.29074V251.549H54.5243V73.0727L0.462402 105.413V41.1498L62.4136 3.29074H127.433ZM56.8963 67.2463H58.3067V247.766H123.651V7.07306H63.4778L4.24472 43.2711V98.7433L56.8963 67.2463ZM255.897 258.13L255.89 258.13C233.439 258.049 213.836 252.852 197.239 242.386C180.647 231.924 167.921 216.87 159.03 197.39C150.132 177.896 145.799 154.685 145.878 127.879C145.958 101.009 150.329 77.9531 159.155 58.8439L159.16 58.8319C168.061 39.7358 180.761 25.0716 197.289 15.0075L197.296 15.0032C213.889 4.94927 233.476 0 255.904 0C278.335 0 297.924 4.99002 314.518 15.1249C331.123 25.1876 343.863 39.851 352.765 58.9495C361.677 78.0695 366.009 101.098 365.93 127.901C365.928 154.853 361.556 178.135 352.66 197.625C343.769 217.105 331.043 232.159 314.451 242.621L314.447 242.624C297.921 253.014 278.353 258.13 255.904 258.13H255.897ZM362.147 127.89C362.226 101.486 357.956 79.0381 349.337 60.5474C340.718 42.0566 328.457 27.9927 312.551 18.3556C296.646 8.64007 277.764 3.78233 255.904 3.78233C234.044 3.78233 215.162 8.6009 199.256 18.238C183.43 27.8751 171.207 41.9391 162.588 60.4299C154.048 78.9206 149.739 101.407 149.66 127.89C149.582 154.294 153.852 176.937 162.471 195.82C171.089 214.702 183.351 229.158 199.256 239.187C215.162 249.216 234.044 254.269 255.904 254.348C277.764 254.348 296.607 249.372 312.434 239.422C328.339 229.393 340.601 214.937 349.22 196.055C357.838 177.172 362.147 154.451 362.147 127.89ZM280.416 181.62L280.42 181.614C287.142 170.698 290.748 153.001 290.67 127.901L290.67 127.89C290.67 111.569 289.041 98.4729 285.907 88.4745C282.74 78.3697 278.492 71.33 273.409 66.934L273.398 66.9245L273.387 66.9149C268.26 62.411 262.481 60.2163 255.904 60.2163C246.198 60.2163 238.091 65.0109 231.495 75.5934C224.932 86.1232 221.294 103.351 221.138 127.907C221.06 144.535 222.651 157.992 225.792 168.393C228.966 178.819 233.224 186.093 238.316 190.639C243.53 195.223 249.347 197.444 255.904 197.444C265.564 197.444 273.718 192.54 280.416 181.62ZM235.807 193.469C230.009 188.298 225.465 180.306 222.174 169.494C218.883 158.603 217.277 144.735 217.355 127.89C217.512 103.131 221.155 85.0319 228.285 73.5928C235.415 62.1536 244.621 56.434 255.904 56.434C263.426 56.434 270.085 58.9804 275.883 64.0731C281.681 69.0876 286.226 76.8443 289.516 87.3433C292.807 97.8423 294.452 111.358 294.452 127.89C294.531 153.197 290.927 171.766 283.64 183.597C276.432 195.35 267.186 201.226 255.904 201.226C248.382 201.226 241.683 198.64 235.807 193.469Z" fill="#592100"/>
</svg>
