<svg width="201" height="260" viewBox="0 0 201 260" fill="none" xmlns="http://www.w3.org/2000/svg">
<path d="M117.561 117.525C113.026 122.144 107.585 127.081 101.246 132.336L101.244 132.337L6.9736 210.32V257.115H198.436V205.908H100.964H98.9641V203.908V202.416V201.479L99.6838 200.879L123.557 180.985C142.919 164.85 157.801 150.993 168.238 139.405C178.683 127.808 185.821 117.346 189.764 108.013C193.731 98.5413 195.701 89.0638 195.701 79.5678C195.701 64.1 191.699 50.7072 183.75 39.3064L183.745 39.2986C175.864 27.8791 164.618 18.9831 149.909 12.6444L149.896 12.6392C135.284 6.22595 117.914 2.98486 97.7313 2.98486C78.2367 2.98486 61.3405 6.42476 46.9877 13.2363C32.6379 20.0463 21.5839 29.7435 13.7594 42.3271C6.24584 54.4108 2.30641 68.7852 2.01718 85.5256H63.6861C63.915 78.9919 65.2833 73.2728 67.8657 68.4307C70.6981 63.1201 74.7087 59.0562 79.8783 56.2931L79.8845 56.2898L79.8908 56.2865C85.1101 53.5441 91.075 52.2024 97.7313 52.2024C104.383 52.2024 110.343 53.5421 115.56 56.2802M117.561 117.525C117.561 117.525 117.561 117.525 117.561 117.525L116.134 116.124L117.561 117.525ZM117.561 117.525C122.238 112.763 125.853 107.83 128.367 102.719M128.367 102.719C131.005 97.5265 132.308 91.7864 132.308 85.5361C132.308 78.7021 130.837 72.7347 127.797 67.7231M128.367 102.719C128.365 102.723 128.363 102.727 128.361 102.731L126.578 101.825L128.373 102.707C128.371 102.711 128.369 102.715 128.367 102.719ZM127.797 67.7231C124.867 62.7558 120.774 58.9341 115.56 56.2802M127.797 67.7231C127.799 67.727 127.802 67.7309 127.804 67.7348L126.081 68.7502L127.79 67.7122C127.793 67.7159 127.795 67.7195 127.797 67.7231ZM115.56 56.2802C115.564 56.2823 115.568 56.2844 115.572 56.2865L114.642 58.057L115.548 56.2742C115.552 56.2762 115.556 56.2782 115.56 56.2802Z" stroke="#592100" stroke-width="4"/>
</svg>
