<svg width="207" height="259" viewBox="0 0 207 259" fill="none" xmlns="http://www.w3.org/2000/svg">
<mask id="path-1-inside-1_131_2321" fill="white">
<path d="M101.778 258.985C82.0431 258.985 64.5097 255.592 49.1783 248.807C33.9284 241.94 21.9405 232.498 13.2146 220.481C4.48869 208.464 0.0849682 194.648 0.00341797 179.034H68.5057C68.5873 183.857 70.0552 188.19 72.9094 192.032C75.8452 195.793 79.8412 198.736 84.8973 200.861C89.9534 202.987 95.7435 204.049 102.268 204.049C108.547 204.049 114.092 202.946 118.904 200.739C123.715 198.45 127.467 195.302 130.158 191.297C132.849 187.291 134.154 182.713 134.072 177.563C134.154 172.494 132.604 167.998 129.424 164.074C126.325 160.15 121.962 157.085 116.335 154.877C110.708 152.67 104.225 151.567 96.8852 151.567H71.4415V104.479H96.8852C103.654 104.479 109.607 103.376 114.745 101.168C119.964 98.9611 124.001 95.8955 126.855 91.9716C129.791 88.0476 131.218 83.5514 131.136 78.483C131.218 73.578 130.035 69.2453 127.589 65.4849C125.142 61.7244 121.717 58.7814 117.314 56.656C112.991 54.5305 107.976 53.4677 102.268 53.4677C96.0697 53.4677 90.5243 54.5714 85.6313 56.7786C80.8198 58.9858 77.0277 62.0514 74.255 65.9754C71.4823 69.8993 70.0552 74.3955 69.9736 79.464H4.89644C4.97799 64.0951 9.17783 50.5248 17.496 38.7529C25.8956 26.9811 37.3942 17.7434 51.9918 11.04C66.5893 4.33657 83.3479 0.984863 102.268 0.984863C120.779 0.984863 137.13 4.1322 151.32 10.4269C165.591 16.7216 176.723 25.387 184.715 36.4231C192.788 47.3774 196.784 59.9259 196.703 74.0685C196.866 88.1293 192.054 99.656 182.268 108.648C172.564 117.641 160.25 122.954 145.326 124.589V126.551C165.551 128.759 180.76 134.972 190.954 145.19C201.147 155.327 206.163 168.08 206 183.449C206.081 198.164 201.677 211.203 192.788 222.566C183.981 233.929 171.708 242.839 155.968 249.298C140.311 255.756 122.247 258.985 101.778 258.985Z"/>
</mask>
<path d="M49.1783 248.807L47.5359 252.454L47.5477 252.46L47.5595 252.465L49.1783 248.807ZM0.00341797 179.034V175.034H-4.01753L-3.99653 179.055L0.00341797 179.034ZM68.5057 179.034L72.5051 178.967L72.4386 175.034H68.5057V179.034ZM72.9094 192.032L69.6985 194.418L69.727 194.456L69.7565 194.494L72.9094 192.032ZM84.8973 200.861L83.3472 204.549H83.3472L84.8973 200.861ZM118.904 200.739L120.572 204.374L120.597 204.363L120.622 204.351L118.904 200.739ZM130.158 191.297L133.478 193.527L130.158 191.297ZM134.072 177.563L130.073 177.498L130.072 177.562L130.073 177.626L134.072 177.563ZM129.424 164.074L126.285 166.553L126.3 166.573L126.316 166.593L129.424 164.074ZM71.4415 151.567H67.4415V155.567H71.4415V151.567ZM71.4415 104.479V100.479H67.4415V104.479H71.4415ZM114.745 101.168L113.187 97.4842L113.176 97.4886L113.166 97.4931L114.745 101.168ZM126.855 91.9716L123.652 89.5753L123.636 89.5968L123.62 89.6186L126.855 91.9716ZM131.136 78.483L127.137 78.4165L127.136 78.4819L127.137 78.5473L131.136 78.483ZM127.589 65.4849L124.236 67.6662L124.236 67.6662L127.589 65.4849ZM117.314 56.656L115.548 60.2454L115.562 60.2519L115.575 60.2583L117.314 56.656ZM85.6313 56.7786L83.9865 53.1324L83.9749 53.1376L83.9634 53.1429L85.6313 56.7786ZM74.255 65.9754L77.5218 68.2837L74.255 65.9754ZM69.9736 79.464V83.464H73.9098L73.9731 79.5283L69.9736 79.464ZM4.89644 79.464L0.896495 79.4427L0.875158 83.464H4.89644V79.464ZM17.496 38.7529L14.2399 36.4296L14.2345 36.4371L14.2292 36.4446L17.496 38.7529ZM51.9918 11.04L53.661 14.675L51.9918 11.04ZM151.32 10.4269L149.698 14.0833L149.706 14.0867L151.32 10.4269ZM184.715 36.4231L181.475 38.7692L181.485 38.7827L181.495 38.7962L184.715 36.4231ZM196.703 74.0685L192.703 74.0455L192.703 74.0802L192.703 74.1149L196.703 74.0685ZM182.268 108.648L179.562 105.703L179.556 105.709L179.55 105.714L182.268 108.648ZM145.326 124.589L144.891 120.613L141.326 121.004V124.589H145.326ZM145.326 126.551H141.326V130.139L144.892 130.528L145.326 126.551ZM190.954 145.19L188.122 148.015L188.127 148.021L188.133 148.027L190.954 145.19ZM206 183.449L202 183.406L201.999 183.439L202 183.471L206 183.449ZM192.788 222.566L189.638 220.101L189.632 220.108L189.627 220.115L192.788 222.566ZM155.968 249.298L154.45 245.597L154.443 245.6L155.968 249.298ZM101.778 254.985C82.5031 254.985 65.5365 251.672 50.7971 245.149L47.5595 252.465C63.483 259.512 81.583 262.985 101.778 262.985V254.985ZM50.8206 245.16C36.1243 238.542 24.7181 229.516 16.4513 218.131L9.97786 222.831C19.1628 235.481 31.7324 245.338 47.5359 252.454L50.8206 245.16ZM16.4513 218.131C8.24353 206.827 4.08078 193.836 4.00336 179.013L-3.99653 179.055C-3.91084 195.461 0.733848 210.101 9.97786 222.831L16.4513 218.131ZM0.00341797 183.034H68.5057V175.034H0.00341797V183.034ZM64.5063 179.102C64.6018 184.754 66.3414 189.899 69.6985 194.418L76.1204 189.647C73.7689 186.482 72.5727 182.961 72.5051 178.967L64.5063 179.102ZM69.7565 194.494C73.1724 198.869 77.7562 202.198 83.3472 204.549L86.4474 197.174C81.9262 195.273 78.518 192.716 76.0623 189.571L69.7565 194.494ZM83.3472 204.549C88.9778 206.916 95.3102 208.049 102.268 208.049V200.049C96.1768 200.049 90.9291 199.058 86.4474 197.174L83.3472 204.549ZM102.268 208.049C109.017 208.049 115.149 206.862 120.572 204.374L117.236 197.103C113.036 199.03 108.077 200.049 102.268 200.049V208.049ZM120.622 204.351C126.012 201.786 130.346 198.19 133.478 193.527L126.838 189.066C124.587 192.415 121.418 195.113 117.185 197.127L120.622 204.351ZM133.478 193.527C136.656 188.798 138.165 183.408 138.072 177.499L130.073 177.626C130.142 182.018 129.042 185.784 126.837 189.066L133.478 193.527ZM138.072 177.627C138.168 171.623 136.305 166.212 132.531 161.556L126.316 166.593C128.903 169.784 130.139 173.365 130.073 177.498L138.072 177.627ZM132.563 161.595C128.941 157.009 123.945 153.566 117.796 151.154L114.874 158.601C119.979 160.604 123.709 163.291 126.285 166.553L132.563 161.595ZM117.796 151.154C111.615 148.729 104.62 147.567 96.8852 147.567V155.567C103.829 155.567 109.801 156.611 114.874 158.601L117.796 151.154ZM96.8852 147.567H71.4415V155.567H96.8852V147.567ZM75.4415 151.567V104.479H67.4415V151.567H75.4415ZM71.4415 108.479H96.8852V100.479H71.4415V108.479ZM96.8852 108.479C104.085 108.479 110.594 107.305 116.324 104.844L113.166 97.4931C108.62 99.446 103.223 100.479 96.8852 100.479V108.479ZM116.303 104.852C122.078 102.41 126.741 98.9288 130.09 94.3245L123.62 89.6186C121.261 92.8622 117.85 95.512 113.187 97.4842L116.303 104.852ZM130.058 94.3678C133.544 89.7087 135.231 84.34 135.136 78.4186L127.137 78.5473C127.205 82.7628 126.038 86.3865 123.652 89.5753L130.058 94.3678ZM135.136 78.5495C135.229 72.9254 133.864 67.7945 130.942 63.3035L124.236 67.6662C126.207 70.6962 127.207 74.2307 127.137 78.4165L135.136 78.5495ZM130.942 63.3035C128.062 58.8764 124.052 55.467 119.052 53.0536L115.575 60.2583C119.382 62.0959 122.223 64.5724 124.236 67.6662L130.942 63.3035ZM119.079 53.0665C114.115 50.6253 108.476 49.4677 102.268 49.4677V57.4677C107.476 57.4677 111.868 58.4356 115.548 60.2454L119.079 53.0665ZM102.268 49.4677C95.5898 49.4677 89.4705 50.6586 83.9865 53.1324L87.2761 60.4248C91.5781 58.4841 96.5496 57.4677 102.268 57.4677V49.4677ZM83.9634 53.1429C78.5783 55.6133 74.2082 59.1102 70.9883 63.667L77.5218 68.2837C79.8472 64.9926 83.0613 62.3584 87.2991 60.4143L83.9634 53.1429ZM70.9883 63.667C67.7248 68.2854 66.0679 73.5733 65.9741 79.3996L73.9731 79.5283C74.0424 75.2178 75.2397 71.5132 77.5218 68.2837L70.9883 63.667ZM69.9736 75.464H4.89644V83.464H69.9736V75.464ZM8.89638 79.4852C8.97389 64.8785 12.9495 52.1185 20.7627 41.0612L14.2292 36.4446C5.40614 48.9311 0.982089 63.3118 0.896495 79.4427L8.89638 79.4852ZM20.752 41.0763C28.7027 29.9337 39.6259 21.1202 53.661 14.675L50.3225 7.40495C35.1626 14.3666 23.0886 24.0284 14.2399 36.4296L20.752 41.0763ZM53.661 14.675C67.65 8.25109 83.8226 4.98486 102.268 4.98486V-3.01514C82.8731 -3.01514 65.5286 0.422058 50.3225 7.40495L53.661 14.675ZM102.268 4.98486C120.327 4.98486 136.108 8.05446 149.698 14.0833L152.942 6.7705C138.153 0.209943 121.232 -3.01514 102.268 -3.01514V4.98486ZM149.706 14.0867C163.424 20.1373 173.956 28.3862 181.475 38.7692L187.955 34.077C179.49 22.3877 167.759 13.3058 152.934 6.76707L149.706 14.0867ZM181.495 38.7962C189.036 49.0281 192.78 60.7285 192.703 74.0455L200.703 74.0916C200.789 59.1234 196.541 45.7268 187.935 34.0499L181.495 38.7962ZM192.703 74.1149C192.854 87.1146 188.458 97.5281 179.562 105.703L184.975 111.594C195.651 101.784 200.878 89.1441 200.703 74.0221L192.703 74.1149ZM179.55 105.714C170.558 114.046 159.081 119.059 144.891 120.613L145.762 128.566C161.418 126.85 174.57 121.235 184.987 111.582L179.55 105.714ZM141.326 124.589V126.551H149.326V124.589H141.326ZM144.892 130.528C164.574 132.676 178.791 138.662 188.122 148.015L193.785 142.365C182.728 131.281 166.527 124.841 145.76 122.575L144.892 130.528ZM188.133 148.027C197.504 157.346 202.152 169.034 202 183.406L209.999 183.491C210.173 167.126 204.79 153.308 193.774 142.354L188.133 148.027ZM202 183.471C202.076 197.304 197.96 209.463 189.638 220.101L195.939 225.03C205.395 212.942 210.086 199.023 210 183.427L202 183.471ZM189.627 220.115C181.321 230.831 169.661 239.356 154.45 245.597L157.487 252.998C173.754 246.323 186.641 237.026 195.95 225.016L189.627 220.115ZM154.443 245.6C139.359 251.822 121.831 254.985 101.778 254.985V262.985C122.664 262.985 141.263 259.69 157.494 252.995L154.443 245.6Z" fill="#592100" mask="url(#path-1-inside-1_131_2321)"/>
</svg>
