<svg width="207" height="259" viewBox="0 0 207 259" fill="none" xmlns="http://www.w3.org/2000/svg">
<path fill-rule="evenodd" clip-rule="evenodd" d="M50.6507 247.768L50.6391 247.763C35.4627 240.758 23.3704 231.062 14.4948 218.636L14.4897 218.629L14.4846 218.622C5.6388 206.118 1.15687 191.753 0.988333 175.658L0.947266 171.736H73.7669L73.8736 175.507C74.0842 182.947 76.8906 188.643 82.2925 192.956C87.9821 197.433 94.7535 199.715 102.797 199.715C109.061 199.715 114.42 198.395 118.988 195.87C123.568 193.258 127.157 189.606 129.791 184.836C132.392 180.126 133.723 174.537 133.649 167.942L133.649 167.899L133.649 167.855C133.724 161.169 132.388 155.593 129.803 150.983L129.797 150.972L129.791 150.961C127.158 146.193 123.575 142.588 119.007 140.058L118.987 140.047L118.967 140.036C114.403 137.438 109.051 136.082 102.797 136.082C96.3867 136.082 90.5014 137.64 85.0699 140.754L85.0625 140.758L85.0552 140.762C79.7854 143.753 75.9742 147.86 73.511 153.138L72.2261 155.892L7.02647 143.065L17.173 0H190.617V61.3093H79.3357L75.8574 100.614C79.8211 96.5097 84.7721 92.9558 90.6313 89.9255C100.761 84.6059 112.411 82.0086 125.47 82.0086C140.808 82.0086 154.609 85.5778 166.764 92.8016C178.947 99.994 188.553 109.947 195.551 122.589C202.672 135.227 206.134 149.727 206.054 165.971C206.134 183.825 201.868 199.823 193.17 213.842C184.569 227.754 172.478 238.637 157.017 246.493L157.009 246.497L157.002 246.501C141.486 254.3 123.379 258.13 102.797 258.13C83.3653 258.13 65.9595 254.712 50.6624 247.774L50.6507 247.768ZM189.871 211.797C198.152 198.451 202.253 183.175 202.172 165.969C202.253 150.291 198.916 136.462 192.163 124.482C185.489 112.422 176.364 102.975 164.786 96.141C153.289 89.3069 140.184 85.8899 125.47 85.8899C112.928 85.8899 101.913 88.3823 92.4256 93.3671C84.9645 97.2242 79.2438 101.877 75.2635 107.325C74.1826 108.805 73.2301 110.343 72.4059 111.94H70.9587L75.7827 57.4281H186.736V3.88128H20.7887L11.1406 139.919L69.9939 151.497C72.8079 145.467 77.1897 140.763 83.1394 137.386C89.1694 133.929 95.7221 132.201 102.797 132.201C109.631 132.201 115.661 133.688 120.887 136.663C126.113 139.557 130.214 143.698 133.189 149.085C136.164 154.391 137.611 160.662 137.53 167.898C137.611 175.054 136.164 181.325 133.189 186.712C130.214 192.099 126.113 196.28 120.887 199.255C115.661 202.149 109.631 203.596 102.797 203.596C93.9533 203.596 86.3152 201.064 79.8832 195.998C73.5315 190.933 70.2351 184.139 69.9939 175.617H4.8694C4.88308 176.924 4.92645 178.217 4.99949 179.498C5.78499 193.273 10.0029 205.567 17.6531 216.38C26.0952 228.199 37.6326 237.485 52.2656 244.239C66.9789 250.912 83.8228 254.249 102.797 254.249C122.897 254.249 140.385 250.51 155.259 243.033C170.133 235.475 181.67 225.063 189.871 211.797Z" fill="#592100"/>
</svg>
