<svg width="211" height="259" viewBox="0 0 211 259" fill="none" xmlns="http://www.w3.org/2000/svg">
<path fill-rule="evenodd" clip-rule="evenodd" d="M67.8034 251.246L67.7899 251.241C54.5535 246.526 42.8089 239.118 32.5803 229.055C22.2587 218.899 14.2429 205.76 8.45157 189.773L8.44863 189.764L8.44571 189.756C2.69992 173.668 -0.0719077 154.353 0.00853724 131.908L0.00854363 131.907C0.0891703 111.831 2.66929 93.6596 7.80597 77.4342L7.8086 77.4259L7.81128 77.4176C13.0197 61.2228 20.4213 47.3182 30.0656 35.778L30.0708 35.7718L30.0759 35.7657C39.801 24.2274 51.4482 15.3836 64.9915 9.27111C78.5592 3.06811 93.5919 0 110.027 0C128.46 0 144.863 3.55045 159.135 10.7692C173.297 17.9327 184.67 27.577 193.156 39.7185C201.707 51.7616 206.708 65.0913 208.122 79.6486L208.53 83.8502H135.988L135.33 80.8365C134.022 74.8472 131.107 70.7838 126.676 68.215L126.647 68.1985L126.619 68.1815C121.883 65.3257 116.391 63.8509 110.027 63.8509C103.649 63.8509 98.3255 65.2306 93.912 67.841C89.5036 70.4483 85.7842 74.4126 82.8091 79.9242C78.2076 88.5623 75.2339 99.4474 74.0115 112.691C76.4667 109.405 79.3143 106.388 82.5494 103.644C89.2088 97.996 96.9364 93.6811 105.689 90.6802C114.443 87.6788 123.674 86.1876 133.359 86.1876C148.714 86.1876 162.316 89.6612 174.027 96.7379C185.737 103.766 194.868 113.406 201.379 125.593C207.905 137.809 211.077 151.699 210.997 167.161C211.076 185.249 206.792 201.257 198.023 215.04C189.37 228.766 177.351 239.389 162.073 246.904C146.781 254.426 129.241 258.13 109.55 258.13C94.9377 258.13 81.0189 255.843 67.8169 251.251L67.8034 251.246ZM194.786 212.991C203.119 199.896 207.245 184.619 207.166 167.159C207.245 152.239 204.19 138.985 198 127.398C191.809 115.811 183.159 106.685 172.048 100.018C161.017 93.3519 148.12 90.0187 133.359 90.0187C124.074 90.0187 115.264 91.4472 106.931 94.3043C98.5984 97.1613 91.297 101.248 85.0274 106.566C80.2743 110.597 76.4335 115.244 73.5049 120.506C72.5705 122.185 71.7289 123.927 70.9803 125.732H69.5517C69.5533 125.535 69.5552 125.338 69.5574 125.141C69.5698 124.049 69.5919 122.969 69.6236 121.901C69.6481 121.079 69.6783 120.264 69.7143 119.456C70.4626 102.648 73.702 88.8677 79.4324 78.1144C85.9401 66.0513 96.1381 60.0197 110.027 60.0197C117.01 60.0197 123.201 61.6467 128.597 64.9005C134.073 68.075 137.565 73.1145 139.073 80.0191H204.309C204.184 78.7318 204.03 77.4547 203.846 76.1879C202.048 63.787 197.44 52.3661 190.024 41.9251C181.929 30.3382 171.056 21.0925 157.406 14.188C143.756 7.28343 127.962 3.83117 110.027 3.83117C94.0747 3.83117 79.5911 6.80725 66.5756 12.7594C53.5602 18.6322 42.3701 27.124 33.0054 38.2348C23.72 49.3455 16.5377 62.7974 11.4585 78.5905C6.45863 94.3837 3.91904 112.161 3.83967 131.922C3.76031 154.064 6.49831 172.913 12.0537 188.468C17.6884 204.023 25.4262 216.641 35.2672 226.324C45.1081 236.006 56.3776 243.109 69.0756 247.632C81.8529 252.077 95.3445 254.299 109.55 254.299C128.756 254.299 145.7 250.688 160.382 243.466C175.064 236.244 186.532 226.086 194.786 212.991ZM124.629 196.476L124.64 196.469C129.198 193.805 132.711 190.187 135.234 185.562L135.244 185.542L135.255 185.523C137.828 180.934 139.124 175.656 139.052 169.585L139.051 169.54L139.052 169.495C139.124 163.334 137.824 158.069 135.267 153.579L135.25 153.548L135.234 153.518C132.711 148.893 129.198 145.275 124.64 142.61L124.629 142.604L124.618 142.597C120.197 139.972 115.054 138.61 109.074 138.61C104.704 138.61 100.733 139.396 97.115 140.926L97.098 140.934L97.081 140.941C93.532 142.402 90.4497 144.514 87.805 147.298L87.7883 147.316L87.7714 147.333C85.128 150.046 83.012 153.306 81.4398 157.159C79.9707 160.873 79.1754 164.99 79.0974 169.547C79.1773 175.623 80.5491 180.917 83.1313 185.523C85.7443 190.184 89.2784 193.816 93.7688 196.483C98.2044 199.116 103.271 200.469 109.074 200.469C115.054 200.469 120.197 199.108 124.618 196.483L124.629 196.476ZM75.2658 169.54C75.3452 164.54 76.2182 159.937 77.8848 155.731C79.6307 151.445 82.0116 147.755 85.0274 144.66C88.0432 141.485 91.5748 139.065 95.6223 137.398C99.7491 135.652 104.233 134.779 109.074 134.779C115.661 134.779 121.494 136.287 126.574 139.303C131.732 142.319 135.74 146.445 138.597 151.683C141.533 156.842 142.962 162.794 142.883 169.54C142.962 176.206 141.533 182.158 138.597 187.396C135.74 192.634 131.732 196.761 126.574 199.777C121.494 202.793 115.661 204.301 109.074 204.301C102.646 204.301 96.8921 202.793 91.8129 199.777C86.7337 196.761 82.7259 192.634 79.7895 187.396C76.8531 182.158 75.3452 176.206 75.2658 169.54Z" fill="#592100"/>
</svg>
