<svg width="220" height="267" viewBox="0 0 220 267" fill="none" xmlns="http://www.w3.org/2000/svg">
<mask id="path-1-outside-1_2357_15387" maskUnits="userSpaceOnUse" x="0.638184" y="0" width="220" height="267" fill="black">
<rect fill="white" x="0.638184" width="220" height="267"/>
<path d="M110.148 262.13C89.8636 262.13 71.7471 258.981 55.798 252.683C39.9307 246.385 27.4168 237.838 18.2563 227.042C9.17754 216.246 4.63818 204.059 4.63818 190.482C4.63818 180.094 7.21458 170.607 12.3674 162.019C17.6019 153.431 24.6359 146.315 33.4692 140.671C42.3026 134.946 52.1583 131.266 63.0364 129.63V127.667C48.7231 125.213 36.9453 118.874 27.703 108.651C18.5425 98.3451 13.9623 86.1992 13.9623 72.2131C13.9623 59.0448 18.1336 47.3488 26.4762 37.125C34.8188 26.8195 46.2285 18.7222 60.7054 12.8333C75.1823 6.94445 91.663 4 110.148 4C128.632 4 145.113 6.98535 159.59 12.956C174.067 18.8449 185.476 26.9422 193.819 37.2477C202.162 47.4715 206.333 59.1266 206.333 72.2131C206.333 86.281 201.671 98.4268 192.347 108.651C183.023 118.874 171.327 125.213 157.259 127.667V129.63C168.055 131.266 177.87 134.946 186.703 140.671C195.537 146.315 202.571 153.431 207.805 162.019C213.04 170.607 215.657 180.094 215.657 190.482C215.657 204.059 211.077 216.246 201.916 227.042C192.838 237.838 180.324 246.385 164.375 252.683C148.507 258.981 130.432 262.13 110.148 262.13ZM110.148 215.019C116.609 215.019 122.334 213.71 127.324 211.093C132.313 208.476 136.239 204.877 139.101 200.297C142.046 195.635 143.518 190.4 143.518 184.593C143.518 178.786 142.046 173.633 139.101 169.135C136.239 164.636 132.313 161.119 127.324 158.584C122.334 155.966 116.609 154.658 110.148 154.658C103.768 154.658 98.0426 155.966 92.9716 158.584C87.9824 161.119 84.0156 164.636 81.0712 169.135C78.2085 173.633 76.7772 178.786 76.7772 184.593C76.7772 190.4 78.2085 195.594 81.0712 200.174C84.0156 204.754 87.9824 208.394 92.9716 211.093C98.0426 213.71 103.768 215.019 110.148 215.019ZM110.148 107.546C115.873 107.546 120.944 106.36 125.361 103.989C129.777 101.617 133.253 98.3451 135.789 94.1738C138.324 90.0024 139.592 85.2995 139.592 80.0649C139.592 74.8304 138.324 70.2092 135.789 66.2015C133.253 62.112 129.777 58.9221 125.361 56.632C120.944 54.2601 115.873 53.0741 110.148 53.0741C104.504 53.0741 99.4331 54.2601 94.9346 56.632C90.5179 58.9221 87.0419 62.112 84.5064 66.2015C81.9709 70.2092 80.7031 74.8304 80.7031 80.0649C80.7031 85.2995 81.9709 90.0024 84.5064 94.1738C87.0419 98.2633 90.5179 101.535 94.9346 103.989C99.4331 106.36 104.504 107.546 110.148 107.546Z"/>
</mask>
<path d="M55.798 252.683L54.3223 256.401L54.3289 256.404L55.798 252.683ZM18.2563 227.042L15.1948 229.616L15.2005 229.623L15.2062 229.63L18.2563 227.042ZM12.3674 162.019L8.95182 159.937L8.94457 159.949L8.93739 159.961L12.3674 162.019ZM33.4692 140.671L35.6228 144.042L35.6338 144.035L35.6448 144.028L33.4692 140.671ZM63.0364 129.63L63.6312 133.585L67.0364 133.073V129.63H63.0364ZM63.0364 127.667H67.0364V124.294L63.7123 123.724L63.0364 127.667ZM27.703 108.651L24.7134 111.308L24.7245 111.321L24.7358 111.333L27.703 108.651ZM26.4762 37.125L29.5753 39.6539L29.5803 39.6479L29.5852 39.6418L26.4762 37.125ZM60.7054 12.8333L62.2126 16.5385L60.7054 12.8333ZM159.59 12.956L158.065 16.6539L158.074 16.6576L158.083 16.6612L159.59 12.956ZM193.819 37.2477L190.71 39.7645L190.715 39.7706L190.72 39.7766L193.819 37.2477ZM192.347 108.651L195.302 111.346L192.347 108.651ZM157.259 127.667L156.571 123.726L153.259 124.304V127.667H157.259ZM157.259 129.63H153.259V133.069L156.66 133.585L157.259 129.63ZM186.703 140.671L184.528 144.028L184.539 144.035L184.55 144.042L186.703 140.671ZM207.805 162.019L211.221 159.937V159.937L207.805 162.019ZM201.916 227.042L198.866 224.454L198.861 224.461L198.855 224.468L201.916 227.042ZM164.375 252.683L162.905 248.963L162.899 248.965L164.375 252.683ZM139.101 200.297L135.719 198.161L135.714 198.169L135.709 198.177L139.101 200.297ZM139.101 169.135L135.727 171.282L135.74 171.304L135.755 171.325L139.101 169.135ZM127.324 158.584L125.465 162.126L125.488 162.138L125.511 162.15L127.324 158.584ZM92.9716 158.584L94.7838 162.15L94.7951 162.144L94.8062 162.138L92.9716 158.584ZM81.0712 169.135L77.7244 166.944L77.7103 166.965L77.6965 166.987L81.0712 169.135ZM81.0712 200.174L77.6792 202.294L77.6927 202.316L77.7065 202.337L81.0712 200.174ZM92.9716 211.093L91.0684 214.611L91.1025 214.63L91.1371 214.647L92.9716 211.093ZM125.361 103.989L123.468 100.465L125.361 103.989ZM135.789 94.1738L132.371 92.0961L135.789 94.1738ZM135.789 66.2015L132.389 68.3092L132.399 68.3247L132.409 68.3401L135.789 66.2015ZM125.361 56.632L123.468 60.156L123.494 60.1697L123.519 60.183L125.361 56.632ZM94.9346 56.632L96.7759 60.183L96.7881 60.1767L96.8003 60.1703L94.9346 56.632ZM84.5064 66.2015L87.8867 68.3401L87.8964 68.3247L87.906 68.3092L84.5064 66.2015ZM84.5064 94.1738L81.0883 96.2514L81.0974 96.2665L81.1067 96.2815L84.5064 94.1738ZM94.9346 103.989L92.992 107.485L93.0303 107.506L93.069 107.527L94.9346 103.989ZM110.148 258.13C90.2764 258.13 72.6713 255.045 57.2671 248.963L54.3289 256.404C70.8229 262.917 89.4509 266.13 110.148 266.13V258.13ZM57.2736 248.965C41.8913 242.86 29.9636 234.657 21.3063 224.454L15.2062 229.63C24.8699 241.019 37.97 249.911 54.3223 256.401L57.2736 248.965ZM21.3177 224.468C12.8195 214.362 8.63818 203.078 8.63818 190.482H0.638184C0.638184 205.04 5.5356 218.13 15.1948 229.616L21.3177 224.468ZM8.63818 190.482C8.63818 180.791 11.0318 172.019 15.7973 164.077L8.93739 159.961C3.39735 169.194 0.638184 179.398 0.638184 190.482H8.63818ZM15.7829 164.101C20.687 156.055 27.2805 149.372 35.6228 144.042L31.3157 137.301C21.9913 143.258 14.5169 150.807 8.95182 159.937L15.7829 164.101ZM35.6448 144.028C43.9784 138.627 53.2907 135.14 63.6312 133.585L62.4416 125.674C51.0259 127.391 40.6268 131.266 31.2937 137.315L35.6448 144.028ZM67.0364 129.63V127.667H59.0364V129.63H67.0364ZM63.7123 123.724C50.2314 121.413 39.2778 115.49 30.6703 105.968L24.7358 111.333C34.6129 122.259 47.2148 129.013 62.3606 131.609L63.7123 123.724ZM30.6927 105.993C22.1932 96.4313 17.9623 85.235 17.9623 72.2131H9.96227C9.96227 87.1634 14.8918 100.259 24.7134 111.308L30.6927 105.993ZM17.9623 72.2131C17.9623 59.9685 21.814 49.1653 29.5753 39.6539L23.377 34.5962C14.4531 45.5323 9.96227 58.1212 9.96227 72.2131H17.9623ZM29.5852 39.6418C37.4326 29.948 48.2493 22.2185 62.2126 16.5385L59.1982 9.12817C44.2077 15.226 32.205 23.691 23.3672 34.6083L29.5852 39.6418ZM62.2126 16.5385C76.1319 10.8765 92.087 8 110.148 8V0C91.239 0 74.2327 3.01244 59.1982 9.12817L62.2126 16.5385ZM110.148 8C128.202 8 144.15 10.9153 158.065 16.6539L161.115 9.25819C146.075 3.05543 129.063 0 110.148 0V8ZM158.083 16.6612C172.046 22.3412 182.863 30.0707 190.71 39.7645L196.928 34.7309C188.09 23.8137 176.087 15.3487 161.097 9.25086L158.083 16.6612ZM190.72 39.7766C198.485 49.2929 202.333 60.0566 202.333 72.2131H210.333C210.333 58.1967 205.838 45.6501 196.918 34.7188L190.72 39.7766ZM202.333 72.2131C202.333 85.3021 198.031 96.4818 189.391 105.955L195.302 111.346C205.311 100.372 210.333 87.2598 210.333 72.2131H202.333ZM189.391 105.955C180.685 115.502 169.796 121.42 156.571 123.726L157.946 131.607C172.857 129.007 185.361 122.247 195.302 111.346L189.391 105.955ZM153.259 127.667V129.63H161.259V127.667H153.259ZM156.66 133.585C166.915 135.139 176.189 138.624 184.528 144.028L188.879 137.315C179.551 131.269 169.195 127.393 157.858 125.675L156.66 133.585ZM184.55 144.042C192.892 149.372 199.486 156.055 204.39 164.101L211.221 159.937C205.656 150.807 198.181 143.258 188.857 137.301L184.55 144.042ZM204.39 164.101C209.229 172.04 211.657 180.804 211.657 190.482H219.657C219.657 179.385 216.85 169.173 211.221 159.937L204.39 164.101ZM211.657 190.482C211.657 203.068 207.442 214.347 198.866 224.454L204.966 229.63C214.712 218.144 219.657 205.05 219.657 190.482H211.657ZM198.855 224.468C190.286 234.657 178.369 242.857 162.905 248.963L165.844 256.404C182.278 249.914 195.389 241.02 204.978 229.616L198.855 224.468ZM162.899 248.965C147.581 255.045 130.019 258.13 110.148 258.13V266.13C130.844 266.13 149.434 262.917 165.85 256.401L162.899 248.965ZM110.148 219.019C117.161 219.019 123.54 217.595 129.182 214.635L125.465 207.551C121.129 209.826 116.057 211.019 110.148 211.019V219.019ZM129.182 214.635C134.771 211.703 139.238 207.625 142.493 202.417L135.709 198.177C133.239 202.129 129.854 205.248 125.465 207.551L129.182 214.635ZM142.483 202.433C145.853 197.097 147.518 191.114 147.518 184.593H139.518C139.518 189.686 138.238 194.173 135.719 198.161L142.483 202.433ZM147.518 184.593C147.518 178.073 145.853 172.146 142.448 166.944L135.755 171.325C138.238 175.12 139.518 179.499 139.518 184.593H147.518ZM142.476 166.987C139.209 161.854 134.73 157.861 129.136 155.018L125.511 162.15C129.895 164.377 133.268 167.418 135.727 171.282L142.476 166.987ZM129.182 155.041C123.54 152.082 117.161 150.658 110.148 150.658V158.658C116.057 158.658 121.129 159.851 125.465 162.126L129.182 155.041ZM110.148 150.658C103.206 150.658 96.8394 152.086 91.1371 155.029L94.8062 162.138C99.2459 159.847 104.33 158.658 110.148 158.658V150.658ZM91.1594 155.018C85.5739 157.856 81.0675 161.836 77.7244 166.944L84.418 171.325C86.9638 167.436 90.3909 164.382 94.7838 162.15L91.1594 155.018ZM77.6965 166.987C74.3892 172.184 72.7772 178.095 72.7772 184.593H80.7772C80.7772 179.476 82.0278 175.082 84.4458 171.282L77.6965 166.987ZM72.7772 184.593C72.7772 191.091 74.3892 197.03 77.6792 202.294L84.4632 198.054C82.0278 194.157 80.7772 189.709 80.7772 184.593H72.7772ZM77.7065 202.337C81.0314 207.509 85.5112 211.605 91.0684 214.611L94.8749 207.575C90.4537 205.183 86.9998 201.999 84.4359 198.011L77.7065 202.337ZM91.1371 214.647C96.8394 217.591 103.206 219.019 110.148 219.019V211.019C104.33 211.019 99.2459 209.83 94.8062 207.538L91.1371 214.647ZM110.148 111.546C116.439 111.546 122.176 110.239 127.253 107.513L123.468 100.465C119.711 102.482 115.307 103.546 110.148 103.546V111.546ZM127.253 107.513C132.28 104.813 136.291 101.049 139.207 96.2514L132.371 92.0961C130.216 95.6409 127.274 98.4206 123.468 100.465L127.253 107.513ZM139.207 96.2514C142.151 91.4085 143.592 85.9772 143.592 80.0649H135.592C135.592 84.6218 134.498 88.5964 132.371 92.0961L139.207 96.2514ZM143.592 80.0649C143.592 74.1545 142.151 68.7759 139.169 64.0629L132.409 68.3401C134.498 71.6425 135.592 75.5062 135.592 80.0649H143.592ZM139.188 64.0937C136.26 59.3701 132.236 55.6912 127.202 53.081L123.519 60.183C127.319 62.1531 130.247 64.8539 132.389 68.3092L139.188 64.0937ZM127.253 53.108C122.176 50.3817 116.439 49.0741 110.148 49.0741V57.0741C115.307 57.0741 119.711 58.1385 123.468 60.156L127.253 53.108ZM110.148 49.0741C103.926 49.0741 98.2035 50.3865 93.069 53.0937L96.8003 60.1703C100.663 58.1337 105.082 57.0741 110.148 57.0741V49.0741ZM93.0933 53.081C88.0594 55.6912 84.0354 59.3701 81.1067 64.0937L87.906 68.3092C90.0483 64.8539 92.9765 62.1531 96.7759 60.183L93.0933 53.081ZM81.126 64.0629C78.1444 68.7759 76.7031 74.1545 76.7031 80.0649H84.7031C84.7031 75.5062 85.7974 71.6425 87.8867 68.3401L81.126 64.0629ZM76.7031 80.0649C76.7031 85.9772 78.1445 91.4085 81.0883 96.2514L87.9244 92.0961C85.7972 88.5964 84.7031 84.6218 84.7031 80.0649H76.7031ZM81.1067 96.2815C84.0198 100.98 88.0102 104.718 92.992 107.485L96.8772 100.492C93.0257 98.3522 90.0639 95.5466 87.906 92.066L81.1067 96.2815ZM93.069 107.527C98.2035 110.234 103.926 111.546 110.148 111.546V103.546C105.082 103.546 100.663 102.487 96.8003 100.45L93.069 107.527Z" fill="#592100" mask="url(#path-1-outside-1_2357_15387)"/>
</svg>
