<svg width="212" height="259" viewBox="0 0 212 259" fill="none" xmlns="http://www.w3.org/2000/svg">
<path fill-rule="evenodd" clip-rule="evenodd" d="M4.19094 90.4949C4.2703 105.256 7.40511 118.43 13.5954 130.017C19.7856 141.525 28.3965 150.612 39.4278 157.278C50.4592 163.865 63.3159 167.159 77.998 167.159C87.2834 167.159 96.0926 165.73 104.426 162.873C112.759 160.016 120.06 155.929 126.33 150.612C131.097 146.569 134.947 141.906 137.879 136.623C138.803 134.959 139.635 133.233 140.377 131.446H141.805C141.805 131.643 141.803 131.841 141.802 132.037C141.794 133.129 141.777 134.209 141.751 135.277C141.731 136.079 141.706 136.873 141.675 137.662C141.002 155.025 137.752 169.143 131.925 180.016C125.496 192.079 115.298 198.11 101.33 198.11C94.3466 198.11 88.1563 196.483 82.7597 193.229C77.3631 189.896 73.8711 184.539 72.2839 177.159H7.04798C7.1696 178.446 7.31862 179.723 7.49505 180.99C9.27586 193.773 13.8489 205.471 21.2142 216.086C29.3091 227.752 40.1818 237.038 53.8321 243.942C67.4824 250.847 83.3152 254.299 101.33 254.299C117.362 254.299 131.885 251.362 144.9 245.49C157.995 239.537 169.185 230.966 178.471 219.776C187.836 208.586 195.018 195.055 200.018 179.182C205.097 163.231 207.597 145.255 207.517 125.256C207.438 103.352 204.581 84.7014 198.946 69.3051C193.391 53.8295 185.693 41.2902 175.852 31.6874C166.09 22.0845 154.86 15.0609 142.162 10.6167C129.464 6.093 116.013 3.83117 101.807 3.83117C82.5216 3.83117 65.5381 7.44216 50.856 14.6641C36.174 21.8861 24.7061 32.0048 16.4524 45.0202C8.19874 58.0357 4.11158 73.1939 4.19094 90.4949ZM143.439 7.00426C130.309 2.32807 116.423 0 101.807 0C82.0394 0 64.4593 3.70325 49.165 11.2264C33.8911 18.7395 21.8717 29.3206 13.217 42.9685C4.52417 56.6764 0.277519 72.5715 0.359816 90.5125L0.359832 90.5155C0.442123 105.822 3.69778 119.621 10.2162 131.823L10.2214 131.832C16.7318 143.935 25.8197 153.531 37.4463 160.557L37.455 160.563L37.4637 160.568C49.1697 167.558 62.7249 170.99 77.998 170.99C87.6831 170.99 96.914 169.499 105.668 166.497C114.421 163.497 122.148 159.182 128.808 153.534C132.079 150.759 134.955 147.705 137.429 144.375C136.265 158.182 133.259 169.416 128.548 178.206L128.544 178.214C125.608 183.722 121.91 187.683 117.505 190.289C113.094 192.897 107.752 194.279 101.33 194.279C94.9746 194.279 89.4888 192.808 84.7567 189.96C80.4234 187.277 77.4406 182.915 76.0294 176.353L75.3787 173.327H2.83794L3.2338 177.519C4.64415 192.452 9.59234 206.057 18.0665 218.27C26.5522 230.499 37.9296 240.192 52.1029 247.361C66.3768 254.581 82.8208 258.13 101.33 258.13C117.838 258.13 132.908 255.104 146.476 248.982L146.486 248.977C160.111 242.784 171.764 233.857 181.414 222.229C191.138 210.607 198.54 196.62 203.669 180.342C208.89 163.945 211.429 145.563 211.349 125.24C211.268 103.038 208.375 83.9252 202.548 68.0001C196.836 52.0908 188.858 39.0278 178.532 28.9502C168.38 18.9642 156.672 11.6378 143.439 7.00426ZM123.705 109.963L123.706 109.962C126.452 107.146 128.558 103.917 130.039 100.25L130.046 100.233L130.053 100.216C131.585 96.5253 132.332 92.5265 132.261 88.1768L132.26 88.1688L132.26 88.1607C132.188 82.2376 130.823 77.0514 128.238 72.5099C125.629 67.9259 122.093 64.3221 117.588 61.6474C113.153 59.0138 108.086 57.6606 102.283 57.6606C96.309 57.6606 91.12 59.0198 86.6096 61.6538C82.1163 64.324 78.5879 67.9193 75.9817 72.4903C73.4867 77.0034 72.2333 82.1626 72.3054 88.0673C72.3777 94.0002 73.7077 99.1942 76.22 103.738C78.8343 108.323 82.3339 111.921 86.751 114.588C91.1695 117.208 96.3081 118.567 102.283 118.567C106.664 118.567 110.647 117.817 114.271 116.358C117.933 114.804 121.065 112.672 123.705 109.963ZM84.7834 117.875C79.7836 114.859 75.8155 110.772 72.8791 105.613C70.022 100.455 68.5538 94.6217 68.4745 88.114C68.3951 81.6063 69.784 75.7732 72.641 70.6146C75.5774 65.4561 79.5852 61.3689 84.6644 58.3531C89.823 55.3374 95.6958 53.8295 102.283 53.8295C108.711 53.8295 114.465 55.3374 119.544 58.3531C124.623 61.3689 128.631 65.4561 131.568 70.6146C134.504 75.7732 136.012 81.6063 136.091 88.114C136.171 92.9551 135.337 97.4788 133.591 101.685C131.925 105.812 129.544 109.463 126.449 112.637C123.433 115.732 119.862 118.153 115.735 119.899C111.608 121.565 107.124 122.399 102.283 122.399C95.6958 122.399 89.8626 120.891 84.7834 117.875Z" fill="#592100"/>
</svg>
