<svg width="21" height="21" viewBox="0 0 21 21" fill="none" xmlns="http://www.w3.org/2000/svg">
<path fill-rule="evenodd" clip-rule="evenodd" d="M20.172 10.682C20.172 9.96207 20.1074 9.26986 19.9874 8.60535H10.4258V12.5325H15.8896C15.6542 13.8015 14.939 14.8767 13.8637 15.5966V18.1439H17.1448C19.0645 16.3765 20.172 13.7738 20.172 10.682Z" fill="#4285F4"/>
<path fill-rule="evenodd" clip-rule="evenodd" d="M10.4257 20.6035C13.1668 20.6035 15.465 19.6944 17.1447 18.1439L13.8637 15.5966C12.9546 16.2057 11.7917 16.5657 10.4257 16.5657C7.78149 16.5657 5.54336 14.7798 4.74502 12.3801H1.35321V15.0105C3.02373 18.3285 6.45707 20.6035 10.4257 20.6035Z" fill="#34A853"/>
<path fill-rule="evenodd" clip-rule="evenodd" d="M4.74508 12.3804C4.54204 11.7712 4.42667 11.1205 4.42667 10.4514C4.42667 9.78228 4.54204 9.13161 4.74508 8.52247V5.89209H1.35328C0.665687 7.26266 0.273438 8.8132 0.273438 10.4514C0.273438 12.0896 0.665687 13.6402 1.35328 15.0107L4.74508 12.3804Z" fill="#FBBC05"/>
<path fill-rule="evenodd" clip-rule="evenodd" d="M10.4257 4.33681C11.9163 4.33681 13.2545 4.84905 14.3067 5.85505L17.2186 2.94317C15.4604 1.30496 13.1622 0.29895 10.4257 0.29895C6.45707 0.29895 3.02373 2.574 1.35321 5.89197L4.74502 8.52235C5.54336 6.1227 7.78149 4.33681 10.4257 4.33681Z" fill="#EA4335"/>
</svg>
