<svg width="24" height="24" viewBox="0 0 24 24" fill="none" xmlns="http://www.w3.org/2000/svg">
<path d="M10.0032 5.75C10.0032 5.33579 9.66737 5 9.25315 5H4.00004C3.44776 5 3.00004 5.44772 3.00004 6C3.00004 6.31826 3.00002 8.17204 3.00001 9.2352C3 9.64943 3.3358 9.98411 3.75002 9.98411C4.16425 9.98411 4.50004 9.64831 4.50004 9.23409V6.5H9.25315C9.66737 6.5 10.0032 6.16421 10.0032 5.75ZM14.7489 6.5C14.3347 6.5 13.9989 6.16421 13.9989 5.75C13.9989 5.33579 14.3347 5 14.7489 5H20C20.5523 5 21 5.44772 21 6V9.24609C21 9.66031 20.6643 9.99609 20.25 9.99609C19.8358 9.99609 19.5 9.66031 19.5 9.24609V6.5H14.7489ZM14 18.25C14 17.8358 14.3358 17.5 14.75 17.5H19.5V14.7461C19.5 14.3319 19.8358 13.9961 20.25 13.9961C20.6643 13.9961 21 14.3319 21 14.7461V18C21 18.5523 20.5523 19 20 19H14.75C14.3358 19 14 18.6642 14 18.25ZM3.75634 14.0005C4.16706 13.9988 4.50004 14.3304 4.50004 14.7412V17.5H9.25C9.66421 17.5 10 17.8358 10 18.25C10 18.6642 9.66421 19 9.25 19H4.00004C3.44776 19 3.00004 18.5523 3.00004 18V14.7536C3.00004 14.338 3.34071 14.0022 3.75634 14.0005Z" fill="#ffffff"/>
</svg>
