<svg width="95" height="95" viewBox="0 0 95 95" fill="none" xmlns="http://www.w3.org/2000/svg">
<path fill-rule="evenodd" clip-rule="evenodd" d="M14.1016 8.40015H76.8536V39.4548H70.0255V15.2283H20.9297V79.7715H38.9635V86.5997H14.1016V8.40015ZM73.4849 54.3841L76.4613 57.3606L73.1607 60.6612L70.1843 57.6847L73.4849 54.3841ZM65.3561 62.5129L53.5715 74.2976L52.8606 77.9849L56.5479 77.274L68.3325 65.4894L65.3561 62.5129ZM73.4849 44.7277L86.1178 57.3606L59.8959 83.5824L44.2459 86.5997L47.2631 70.9496L73.4849 44.7277ZM28.6613 28.6678H62.2938V21.8397H28.6613V28.6678ZM62.2938 40.8669H28.6613V34.0388H62.2938V40.8669ZM28.6613 53.9819H50.9526V47.1538H28.6613V53.9819Z" fill="#F45900"/>
</svg>
