<svg width="22" height="20" viewBox="0 0 22 20" fill="none" xmlns="http://www.w3.org/2000/svg">
<path d="M19.3478 4.13044H2.65218C1.71305 4.13044 0.956528 3.37392 0.956528 2.43479C0.956528 1.49566 1.71305 0.739136 2.65218 0.739136H19.3478C20.287 0.739136 21.0435 1.49566 21.0435 2.43479C21.0435 3.37392 20.287 4.13044 19.3478 4.13044ZM21.0435 10C21.0435 9.06087 20.287 8.30435 19.3478 8.30435H2.65218C1.71305 8.30435 0.956528 9.06087 0.956528 10C0.956528 10.9391 1.71305 11.6957 2.65218 11.6957H19.3478C20.287 11.6957 21.0435 10.9391 21.0435 10ZM21.0435 17.5652C21.0435 16.6261 20.287 15.8696 19.3478 15.8696H2.65218C1.71305 15.8696 0.956528 16.6261 0.956528 17.5652C0.956528 18.5044 1.71305 19.2609 2.65218 19.2609H19.3478C20.287 19.2609 21.0435 18.5044 21.0435 17.5652Z" fill="white"/>
</svg>
